<svg viewBox="0 0 62 15" xmlns="http://www.w3.org/2000/svg">
    <path d="M58.4501 10.704C58.3941 10.656 58.3221 10.512 58.2341 10.272C58.1541 10.032 58.0741 9.752 57.9941 9.432C57.9221 9.104 57.8621 8.804 57.8141 8.532C57.7821 8.372 57.7461 8.236 57.7061 8.124C57.6741 8.012 57.6461 7.92 57.6221 7.848C57.5821 7.704 57.5701 7.584 57.5861 7.488C57.6021 7.392 57.6581 7.316 57.7541 7.26C57.7941 7.236 57.8421 7.22 57.8981 7.212C57.9621 7.196 58.0101 7.192 58.0421 7.2C58.1381 7.232 58.2261 7.38 58.3061 7.644C58.3861 7.9 58.4581 8.24 58.5221 8.664C58.5541 8.912 58.5941 9.124 58.6421 9.3C58.6901 9.476 58.7141 9.58 58.7141 9.612C58.7461 9.676 58.7821 9.74 58.8221 9.804C58.8701 9.86 58.9261 9.856 58.9901 9.792C59.0221 9.76 59.0861 9.688 59.1821 9.576C59.2861 9.464 59.3861 9.344 59.4821 9.216C59.6501 8.992 59.7821 8.808 59.8781 8.664C59.9821 8.52 60.0981 8.368 60.2261 8.208C60.2821 8.128 60.3461 8.04 60.4181 7.944C60.4901 7.848 60.5621 7.76 60.6341 7.68C60.7141 7.592 60.7861 7.54 60.8501 7.524C61.0421 7.492 61.1461 7.532 61.1621 7.644C61.1781 7.756 61.1061 7.924 60.9461 8.148C60.8821 8.244 60.8301 8.336 60.7901 8.424C60.7581 8.504 60.7261 8.56 60.6941 8.592C60.6301 8.72 60.5301 8.884 60.3941 9.084C60.2581 9.276 60.1261 9.456 59.9981 9.624C59.8701 9.784 59.7821 9.888 59.7341 9.936C59.7021 9.968 59.6301 10.028 59.5181 10.116C59.4141 10.204 59.3141 10.316 59.2181 10.452C59.0261 10.636 58.8741 10.748 58.7621 10.788C58.6501 10.828 58.5461 10.8 58.4501 10.704Z" />
    <path d="M53.993 11.256C53.889 11.256 53.805 11.236 53.741 11.196C53.685 11.156 53.613 11.1 53.525 11.028C53.373 10.868 53.265 10.716 53.201 10.572C53.137 10.42 53.117 10.276 53.141 10.14C53.165 10.076 53.173 10.016 53.165 9.96C53.165 9.896 53.165 9.86399 53.165 9.86399C53.125 9.82399 53.113 9.8 53.129 9.792C53.145 9.776 53.161 9.752 53.177 9.72C53.225 9.72 53.241 9.67599 53.225 9.58799C53.209 9.52399 53.241 9.384 53.321 9.168C53.401 8.952 53.501 8.748 53.621 8.55599C53.669 8.476 53.741 8.372 53.837 8.244C53.933 8.108 54.037 7.97599 54.149 7.84799C54.269 7.71199 54.377 7.60399 54.473 7.52399C54.673 7.35599 54.849 7.23199 55.001 7.15199C55.153 7.07199 55.317 7.01199 55.493 6.97199C55.669 6.93199 55.789 6.91199 55.853 6.91199C55.925 6.91199 56.021 6.976 56.141 7.10399C56.325 7.184 56.457 7.27999 56.537 7.39199C56.625 7.50399 56.681 7.66799 56.705 7.884C56.729 8.124 56.709 8.4 56.645 8.712C56.589 9.016 56.401 9.396 56.081 9.852C55.881 10.14 55.697 10.356 55.529 10.5C55.361 10.636 55.161 10.772 54.929 10.908C54.761 11.02 54.609 11.104 54.473 11.16C54.337 11.208 54.177 11.24 53.993 11.256ZM55.145 9.984C55.337 9.768 55.489 9.564 55.601 9.37199C55.721 9.17999 55.833 8.93599 55.937 8.63999C55.969 8.55199 55.989 8.44399 55.997 8.31599C56.005 8.17999 56.001 8.05599 55.985 7.94399C55.977 7.82399 55.949 7.756 55.901 7.74C55.805 7.684 55.689 7.66799 55.553 7.692C55.417 7.708 55.269 7.78399 55.109 7.91999C54.861 8.12799 54.645 8.388 54.461 8.7C54.277 9.004 54.097 9.35199 53.921 9.74399C53.801 10.032 53.773 10.264 53.837 10.44C53.909 10.608 54.057 10.668 54.281 10.62C54.513 10.564 54.801 10.352 55.145 9.984Z" />
    <path d="M48.1019 14.112C48.0459 14.088 47.9859 14.048 47.9219 13.992C47.8579 13.936 47.8059 13.872 47.7659 13.8C47.7259 13.736 47.7059 13.68 47.7059 13.632C47.7059 13.584 47.7259 13.456 47.7659 13.248C47.8059 13.048 47.8579 12.8 47.9219 12.504C47.9939 12.216 48.0699 11.92 48.1499 11.616C48.2379 11.32 48.3259 11.056 48.4139 10.824C48.4299 10.784 48.4819 10.652 48.5699 10.428C48.6659 10.196 48.7579 9.916 48.8459 9.588C48.9099 9.38 48.9939 9.144 49.0979 8.88C49.2019 8.616 49.3099 8.352 49.4219 8.088C49.5339 7.816 49.6259 7.576 49.6979 7.368C49.7699 7.16 49.8299 6.992 49.8779 6.864C49.9339 6.728 49.9659 6.644 49.9739 6.612C49.9899 6.564 50.0139 6.524 50.0459 6.492C50.0859 6.452 50.1259 6.42 50.1659 6.396C50.2059 6.364 50.2379 6.344 50.2619 6.336C50.4059 6.296 50.5299 6.356 50.6339 6.516C50.6739 6.588 50.6819 6.672 50.6579 6.768C50.6339 6.864 50.5899 6.984 50.5259 7.128L50.4419 7.368L50.8739 7.272C50.9459 7.272 51.0339 7.276 51.1379 7.284C51.2499 7.284 51.3579 7.284 51.4619 7.284C51.5659 7.284 51.6419 7.292 51.6899 7.308C51.8819 7.316 52.0139 7.352 52.0859 7.416C52.1659 7.48 52.2339 7.564 52.2899 7.668C52.3299 7.708 52.3779 7.764 52.4339 7.836C52.4899 7.9 52.5219 7.964 52.5299 8.028C52.5619 8.164 52.5619 8.312 52.5299 8.472C52.5059 8.624 52.4579 8.776 52.3859 8.928C52.3219 9.08 52.2339 9.22 52.1219 9.348C52.0179 9.468 51.9059 9.568 51.7859 9.648C51.7059 9.68 51.6339 9.716 51.5699 9.756C51.5059 9.788 51.4739 9.804 51.4739 9.804C51.4659 9.844 51.3779 9.908 51.2099 9.996C51.0419 10.076 50.8499 10.152 50.6339 10.224C50.4179 10.296 50.2299 10.344 50.0699 10.368C50.0139 10.376 49.9339 10.384 49.8299 10.392C49.7259 10.4 49.6459 10.388 49.5899 10.356C49.5019 10.34 49.4419 10.332 49.4099 10.332C49.3779 10.332 49.3619 10.348 49.3619 10.38C49.3539 10.396 49.2979 10.564 49.1939 10.884C49.0899 11.204 48.9819 11.576 48.8699 12C48.7179 12.464 48.5939 12.832 48.4979 13.104C48.4019 13.384 48.3259 13.592 48.2699 13.728C48.2219 13.864 48.1859 13.956 48.1619 14.004C48.1379 14.06 48.1179 14.096 48.1019 14.112ZM49.6019 9.684C49.6259 9.732 49.7019 9.748 49.8299 9.732C49.9659 9.708 50.1259 9.66 50.3099 9.588C50.5019 9.508 50.6899 9.42 50.8739 9.324C51.0579 9.22 51.2099 9.116 51.3299 9.012C51.5059 8.812 51.6499 8.628 51.7619 8.46C51.8739 8.284 51.8899 8.168 51.8099 8.112C51.7219 7.984 51.5579 7.924 51.3179 7.932C51.0779 7.94 50.7819 8.04 50.4299 8.232C50.2939 8.28 50.1899 8.344 50.1179 8.424C50.0539 8.496 49.9979 8.588 49.9499 8.7C49.9019 8.812 49.8419 8.948 49.7699 9.108C49.6979 9.284 49.6499 9.416 49.6259 9.504C49.6019 9.592 49.5939 9.652 49.6019 9.684Z" />
    <path d="M45.0376 11.064C45.0136 11.072 44.9737 11.068 44.9177 11.052C44.8617 11.036 44.8057 11.016 44.7497 10.992C44.6937 10.968 44.6576 10.948 44.6416 10.932C44.6096 10.9 44.5776 10.852 44.5456 10.788C44.5216 10.724 44.5216 10.632 44.5456 10.512C44.5696 10.384 44.6497 10.22 44.7857 10.02C44.8257 9.94 44.8737 9.82 44.9297 9.66C44.9857 9.5 45.0417 9.332 45.0977 9.156C45.1617 8.972 45.2177 8.808 45.2657 8.664C45.3217 8.52 45.3616 8.42 45.3856 8.364C45.4016 8.228 45.3937 8.132 45.3617 8.076C45.3377 8.012 45.2697 7.976 45.1577 7.968C45.0777 7.968 45.0137 7.96 44.9657 7.944C44.9257 7.928 44.9056 7.848 44.9056 7.704C44.9216 7.592 44.9496 7.516 44.9896 7.476C45.0376 7.428 45.1017 7.376 45.1817 7.32C45.2617 7.28 45.3417 7.252 45.4217 7.236C45.5097 7.22 45.5937 7.216 45.6737 7.224C45.7537 7.232 45.8176 7.26 45.8656 7.308C45.9216 7.34 45.9577 7.412 45.9737 7.524C45.9897 7.628 45.9976 7.736 45.9976 7.848C46.0056 7.96 46.0137 8.044 46.0217 8.1C46.1017 8.036 46.2097 7.948 46.3457 7.836C46.4897 7.716 46.6136 7.604 46.7176 7.5C46.8456 7.412 46.9977 7.324 47.1737 7.236C47.3497 7.14 47.4776 7.092 47.5576 7.092C47.6456 7.092 47.7336 7.116 47.8216 7.164C47.9096 7.204 47.9697 7.256 48.0017 7.32C48.0817 7.456 48.1177 7.576 48.1097 7.68C48.1097 7.784 48.0657 7.892 47.9777 8.004C47.8977 8.108 47.7976 8.18 47.6776 8.22C47.5656 8.26 47.4936 8.28 47.4616 8.28C47.4136 8.28 47.3536 8.244 47.2816 8.172C47.2096 8.1 47.1696 8.04 47.1616 7.992C47.1616 7.968 47.1097 7.992 47.0057 8.064C46.9097 8.128 46.8017 8.212 46.6817 8.316C46.5617 8.412 46.4617 8.5 46.3817 8.58C46.2457 8.748 46.1017 8.976 45.9497 9.264C45.7977 9.552 45.6177 9.9 45.4097 10.308C45.3137 10.508 45.2456 10.68 45.2056 10.824C45.1656 10.96 45.1096 11.04 45.0376 11.064Z" />
    <path d="M40.1278 11.04C40.0318 11.056 39.9278 11.04 39.8158 10.992C39.7038 10.944 39.6038 10.876 39.5158 10.788C39.4358 10.7 39.3838 10.608 39.3598 10.512C39.3278 10.344 39.3478 10.136 39.4198 9.88799C39.4998 9.63199 39.6118 9.36399 39.7558 9.08399C39.9078 8.79599 40.0758 8.51999 40.2598 8.25599C40.4518 7.99199 40.6478 7.76399 40.8478 7.57199C41.0558 7.37199 41.2478 7.23599 41.4238 7.16399C41.5118 7.10799 41.5798 7.07199 41.6278 7.05599C41.6838 7.03199 41.7398 7.02799 41.7958 7.04399C41.8598 7.05999 41.9518 7.09999 42.0718 7.16399C42.1838 7.19599 42.2678 7.23199 42.3238 7.27199C42.3798 7.31199 42.4518 7.39199 42.5398 7.51199C42.6038 7.63199 42.6518 7.75199 42.6838 7.87199C42.7158 7.99199 42.7438 8.12799 42.7678 8.27999C42.8318 8.47999 42.8558 8.61199 42.8398 8.67599C42.8238 8.73199 42.7998 8.77599 42.7678 8.80799C42.7038 8.88799 42.6878 8.92799 42.7198 8.92799C42.7198 8.92799 42.7158 8.94399 42.7078 8.97599C42.7078 8.99999 42.6918 9.03999 42.6598 9.09599C42.6038 9.27199 42.5598 9.45599 42.5278 9.64799C42.5038 9.83199 42.5078 9.98399 42.5398 10.104C42.6038 10.28 42.7198 10.384 42.8878 10.416C43.0558 10.448 43.2278 10.376 43.4038 10.2C43.4918 10.136 43.5758 10.08 43.6558 10.032C43.7358 9.97599 43.7758 9.97999 43.7758 10.044C43.7758 10.044 43.7878 10.056 43.8118 10.08C43.8358 10.096 43.8638 10.104 43.8958 10.104C43.9358 10.104 43.9598 10.12 43.9678 10.152C43.9838 10.184 43.9838 10.228 43.9678 10.284C43.9598 10.332 43.9358 10.388 43.8958 10.452C43.7758 10.572 43.7158 10.652 43.7158 10.692C43.7158 10.692 43.6998 10.708 43.6678 10.74C43.6438 10.764 43.5998 10.804 43.5358 10.86C43.3918 10.948 43.2078 10.992 42.9838 10.992C42.7678 10.992 42.5998 10.948 42.4798 10.86C42.3598 10.772 42.2478 10.652 42.1438 10.5C42.0478 10.348 41.9838 10.216 41.9518 10.104L41.8918 9.98399L41.5438 10.212C41.4558 10.3 41.3598 10.384 41.2558 10.464C41.1598 10.544 41.0958 10.6 41.0638 10.632C41.0398 10.664 41.0118 10.692 40.9798 10.716C40.9558 10.74 40.9278 10.752 40.8958 10.752C40.8638 10.752 40.8358 10.752 40.8118 10.752C40.7878 10.752 40.7758 10.752 40.7758 10.752C40.7758 10.784 40.7358 10.824 40.6558 10.872C40.5838 10.92 40.4958 10.96 40.3918 10.992C40.2958 11.024 40.2078 11.04 40.1278 11.04ZM40.0078 10.392C40.0558 10.392 40.1398 10.356 40.2598 10.284C40.3878 10.204 40.5278 10.112 40.6798 10.008C40.8398 9.90399 40.9798 9.79999 41.0998 9.69599C41.2278 9.59199 41.3158 9.51199 41.3638 9.45599C41.3958 9.42399 41.4478 9.37199 41.5198 9.29999C41.5918 9.21999 41.6558 9.15199 41.7118 9.09599C41.8958 8.88799 42.0238 8.65999 42.0958 8.41199C42.1678 8.15599 42.1598 7.95599 42.0718 7.81199C42.0398 7.72399 41.9998 7.67599 41.9518 7.66799C41.9038 7.65999 41.8038 7.68799 41.6518 7.75199C41.5558 7.80799 41.4358 7.91599 41.2918 8.07599C41.1558 8.22799 41.0078 8.40799 40.8478 8.61599C40.6958 8.81599 40.5518 9.02399 40.4158 9.23999C40.2798 9.45599 40.1678 9.65599 40.0798 9.83999C39.9918 10.024 39.9478 10.168 39.9478 10.272C39.9478 10.304 39.9558 10.332 39.9718 10.356C39.9958 10.38 40.0078 10.392 40.0078 10.392Z" />
    <path d="M33.8397 11.88C33.7357 11.816 33.6797 11.752 33.6717 11.688C33.6637 11.632 33.6837 11.52 33.7317 11.352C33.7237 11.248 33.7277 11.152 33.7437 11.064C33.7677 10.976 33.7837 10.916 33.7917 10.884C33.8317 10.884 33.8557 10.86 33.8637 10.812C33.8717 10.764 33.8757 10.724 33.8757 10.692C33.8757 10.628 33.8997 10.52 33.9477 10.368C34.0037 10.216 34.0517 10.06 34.0917 9.9C34.1557 9.74 34.2157 9.592 34.2717 9.456C34.3357 9.312 34.3677 9.224 34.3677 9.192C34.3677 9.128 34.3837 9.064 34.4157 9C34.4477 8.928 34.4837 8.86 34.5237 8.796C34.5637 8.7 34.5917 8.596 34.6077 8.484C34.6317 8.364 34.6437 8.272 34.6437 8.208C34.6917 8.104 34.7437 7.992 34.7997 7.872C34.8557 7.752 34.8997 7.628 34.9317 7.5C34.9797 7.364 35.0477 7.168 35.1357 6.912C35.2317 6.648 35.3317 6.38 35.4357 6.108C35.5077 5.956 35.5797 5.796 35.6517 5.628C35.7237 5.46 35.7877 5.316 35.8437 5.196C35.8997 5.076 35.9397 5.016 35.9637 5.016C35.9637 5.016 35.9637 5.004 35.9637 4.98C35.9637 4.948 35.9637 4.916 35.9637 4.884C35.9637 4.844 35.9957 4.768 36.0597 4.656C36.1237 4.536 36.1837 4.412 36.2397 4.284C36.3197 4.164 36.3757 4.052 36.4077 3.948C36.4397 3.836 36.4557 3.78 36.4557 3.78C36.4557 3.78 36.4677 3.756 36.4917 3.708C36.5237 3.66 36.5557 3.62 36.5877 3.588C36.6917 3.516 36.7877 3.488 36.8757 3.504C36.9717 3.52 37.0517 3.596 37.1157 3.732C37.1797 3.86 37.2077 3.968 37.1997 4.056C37.1917 4.136 37.1557 4.224 37.0917 4.32C37.0277 4.464 36.9437 4.648 36.8397 4.872C36.7357 5.088 36.6237 5.324 36.5037 5.58C36.3917 5.828 36.2837 6.068 36.1797 6.3C36.0837 6.524 36.0037 6.72 35.9397 6.888C35.8837 7.048 35.8557 7.148 35.8557 7.188L35.3637 8.4C35.3637 8.416 35.3477 8.456 35.3157 8.52C35.2917 8.584 35.2557 8.68 35.2077 8.808C35.1677 8.936 35.1157 9.104 35.0517 9.312C34.9877 9.52 34.9117 9.772 34.8237 10.068C34.6637 10.58 34.5397 10.98 34.4517 11.268C34.3637 11.548 34.2917 11.74 34.2357 11.844C34.1877 11.956 34.1357 12.012 34.0797 12.012C34.0477 12.012 34.0117 11.996 33.9717 11.964C33.9397 11.94 33.8957 11.912 33.8397 11.88ZM38.0757 11.976C38.0037 11.984 37.9037 11.948 37.7757 11.868C37.6557 11.796 37.5237 11.704 37.3797 11.592C37.2437 11.48 37.1117 11.364 36.9837 11.244C36.8637 11.124 36.7677 11.02 36.6957 10.932C36.5677 10.748 36.4077 10.508 36.2157 10.212C36.0237 9.908 35.8797 9.584 35.7837 9.24C35.7277 8.984 35.6717 8.784 35.6157 8.64C35.5597 8.488 35.5237 8.364 35.5077 8.268L35.5197 7.428L36.1317 7.62C36.1717 8.052 36.2317 8.412 36.3117 8.7C36.3997 8.98 36.5037 9.228 36.6237 9.444C36.7197 9.652 36.8277 9.86 36.9477 10.068C37.0677 10.268 37.1957 10.436 37.3317 10.572C37.5157 10.772 37.6797 10.92 37.8237 11.016C37.9677 11.112 38.0757 11.16 38.1477 11.16C38.1877 11.168 38.2437 11.196 38.3157 11.244C38.3957 11.292 38.4677 11.344 38.5317 11.4C38.6037 11.448 38.6437 11.496 38.6517 11.544C38.6597 11.568 38.6637 11.604 38.6637 11.652C38.6637 11.708 38.6557 11.756 38.6397 11.796C38.6317 11.844 38.6197 11.88 38.6037 11.904C38.5797 11.96 38.5357 12.008 38.4717 12.048C38.4157 12.096 38.2837 12.072 38.0757 11.976ZM35.3877 7.524L36.2637 6.888C36.2877 6.864 36.3717 6.784 36.5157 6.648C36.6677 6.512 36.9157 6.316 37.2597 6.06L38.7357 4.86C38.9357 4.756 39.1397 4.624 39.3477 4.464C39.5637 4.304 39.7277 4.188 39.8397 4.116C39.9757 4.02 40.0957 3.936 40.1997 3.864C40.3037 3.792 40.3717 3.76 40.4037 3.768C40.4677 3.736 40.5317 3.748 40.5957 3.804C40.6677 3.852 40.7237 3.92 40.7637 4.008C40.8117 4.088 40.8317 4.16 40.8237 4.224C40.8397 4.304 40.8237 4.372 40.7757 4.428C40.7277 4.484 40.6117 4.564 40.4277 4.668C40.2757 4.74 40.1397 4.812 40.0197 4.884C39.9077 4.956 39.8397 5.016 39.8157 5.064C39.8157 5.064 39.7397 5.124 39.5877 5.244C39.4437 5.356 39.2557 5.492 39.0237 5.652C38.7037 5.86 38.4277 6.056 38.1957 6.24C37.9717 6.424 37.8277 6.564 37.7637 6.66C37.7317 6.66 37.6997 6.672 37.6677 6.696C37.6437 6.72 37.6157 6.728 37.5837 6.72C37.5837 6.72 37.5517 6.74 37.4877 6.78C37.4317 6.82 37.3877 6.86 37.3557 6.9C37.3397 6.94 37.3037 6.996 37.2477 7.068C37.1997 7.14 37.1357 7.172 37.0557 7.164C36.9997 7.196 36.8997 7.264 36.7557 7.368C36.6117 7.464 36.4597 7.572 36.2997 7.692C36.1477 7.812 36.0157 7.92 35.9037 8.016C35.7917 8.112 35.7317 8.168 35.7237 8.184L35.3877 7.524Z" />
    <path d="M26.6396 13.824C26.4476 13.88 26.2356 13.888 26.0036 13.848C25.7796 13.816 25.5836 13.748 25.4156 13.644C25.2396 13.54 25.1396 13.424 25.1156 13.296C25.1076 13.248 25.1236 13.196 25.1636 13.14C25.1956 13.084 25.2396 13.044 25.2956 13.02C25.3436 13.004 25.3876 13.02 25.4276 13.068C25.4916 13.108 25.6076 13.156 25.7756 13.212C25.9436 13.276 26.1316 13.288 26.3396 13.248C26.5236 13.208 26.7036 13.1 26.8796 12.924C27.0636 12.748 27.2116 12.584 27.3236 12.432C27.3876 12.336 27.4956 12.164 27.6476 11.916C27.7996 11.668 27.9556 11.396 28.1156 11.1C28.2836 10.796 28.4236 10.516 28.5356 10.26C28.5596 10.196 28.5876 10.12 28.6196 10.032C28.6516 9.944 28.6916 9.872 28.7396 9.816C28.7876 9.72 28.8276 9.632 28.8596 9.552C28.8996 9.464 28.9236 9.404 28.9316 9.372C28.9396 9.332 28.9756 9.252 29.0396 9.132C29.1036 9.012 29.1636 8.892 29.2196 8.772C29.2596 8.652 29.3196 8.476 29.3996 8.244C29.4796 8.012 29.5596 7.824 29.6396 7.68C29.7356 7.496 29.8116 7.348 29.8676 7.236C29.9316 7.116 29.9996 7.044 30.0716 7.02C30.1436 6.964 30.1916 6.936 30.2156 6.936C30.2476 6.936 30.3076 6.96 30.3956 7.008C30.4916 7.104 30.5516 7.2 30.5756 7.296C30.5996 7.384 30.5876 7.496 30.5396 7.632C30.4996 7.76 30.4196 7.936 30.2996 8.16C30.2356 8.352 30.1636 8.528 30.0836 8.688C30.0116 8.84 29.9556 8.94 29.9156 8.988C29.8756 9.084 29.8276 9.192 29.7716 9.312C29.7236 9.424 29.6796 9.528 29.6396 9.624C29.4956 9.944 29.3716 10.204 29.2676 10.404C29.1636 10.604 29.0716 10.788 28.9916 10.956C28.9116 11.124 28.8276 11.32 28.7396 11.544C28.5556 11.84 28.3756 12.12 28.1996 12.384C28.0316 12.656 27.8516 12.908 27.6596 13.14C27.5796 13.212 27.4796 13.296 27.3596 13.392C27.2396 13.488 27.1156 13.576 26.9876 13.656C26.8676 13.736 26.7516 13.792 26.6396 13.824ZM28.2596 10.944C28.1396 10.928 28.0196 10.856 27.8996 10.728C27.7876 10.6 27.6996 10.464 27.6356 10.32C27.5716 10.176 27.5476 10.072 27.5636 10.008C27.5636 9.968 27.5636 9.936 27.5636 9.912C27.5636 9.888 27.5636 9.876 27.5636 9.876C27.5156 9.876 27.4716 9.816 27.4316 9.696C27.3996 9.576 27.3756 9.42 27.3596 9.228C27.3436 9.036 27.3316 8.832 27.3236 8.616C27.3236 8.4 27.3316 8.196 27.3476 8.004C27.3796 7.868 27.3956 7.72 27.3956 7.56C27.3956 7.392 27.3996 7.26 27.4076 7.164C27.3996 7.036 27.4116 6.952 27.4436 6.912C27.4756 6.864 27.5076 6.828 27.5396 6.804C27.7636 6.708 27.9116 6.768 27.9836 6.984C28.0636 7.192 28.0836 7.584 28.0436 8.16C28.0276 8.48 28.0276 8.8 28.0436 9.12C28.0596 9.44 28.1036 9.72 28.1756 9.96C28.2556 10.2 28.3636 10.364 28.4996 10.452C28.5556 10.484 28.5836 10.528 28.5836 10.584C28.5836 10.64 28.5676 10.7 28.5356 10.764C28.5036 10.82 28.4596 10.868 28.4036 10.908C28.3556 10.94 28.3076 10.952 28.2596 10.944Z" />
    <path d="M25.2533 11.064C25.1333 11.048 25.0293 10.964 24.9413 10.812C24.8613 10.652 24.8133 10.508 24.7973 10.38C24.8053 10.316 24.8133 10.224 24.8213 10.104C24.8373 9.984 24.8533 9.85999 24.8693 9.73199C24.9013 9.57999 24.9453 9.39599 25.0013 9.17999C25.0573 8.95599 25.1133 8.73199 25.1693 8.50799C25.2333 8.28399 25.2893 8.092 25.3373 7.93199C25.3853 7.772 25.4173 7.67599 25.4333 7.64399C25.4733 7.57999 25.5373 7.564 25.6253 7.59599C25.7133 7.628 25.7853 7.676 25.8413 7.74C25.8893 7.804 25.9173 7.88 25.9253 7.968C25.9413 8.05599 25.9293 8.18399 25.8893 8.35199C25.8573 8.51999 25.7933 8.76799 25.6973 9.09599C25.6093 9.416 25.5413 9.67599 25.4933 9.87599C25.4533 10.068 25.4373 10.272 25.4453 10.488C25.4133 10.76 25.3893 10.928 25.3733 10.992C25.3573 11.048 25.3173 11.072 25.2533 11.064ZM26.6333 6.276C26.6013 6.3 26.5693 6.312 26.5373 6.312C26.5133 6.30399 26.4693 6.27999 26.4053 6.24C26.3493 6.232 26.2773 6.19599 26.1893 6.13199C26.1093 6.05999 26.0373 5.98799 25.9733 5.916C25.9173 5.83599 25.8893 5.78799 25.8893 5.77199C25.8813 5.69199 25.8853 5.59199 25.9013 5.47199C25.9253 5.34399 25.9693 5.232 26.0333 5.13599C26.0973 5.03199 26.1893 4.97599 26.3093 4.96799C26.3413 4.96799 26.3693 4.97199 26.3933 4.97999C26.4173 4.988 26.4893 5.016 26.6093 5.06399C26.6733 5.18399 26.7373 5.31999 26.8013 5.47199C26.8653 5.61599 26.8933 5.75999 26.8853 5.90399C26.8773 6.03999 26.7933 6.164 26.6333 6.276Z" />
    <path d="M20.9291 11.16C20.8891 11.24 20.8291 11.264 20.7491 11.232C20.6771 11.2 20.6171 11.168 20.5691 11.136C20.5131 11.136 20.4651 11.12 20.4251 11.088C20.3851 11.056 20.3571 11.008 20.3411 10.944C20.3251 10.896 20.3211 10.84 20.3291 10.776C20.3371 10.704 20.3531 10.624 20.3771 10.536C20.4091 10.44 20.4411 10.336 20.4731 10.224C20.5371 9.96 20.5811 9.768 20.6051 9.648C20.6291 9.528 20.6531 9.424 20.6771 9.336C20.7011 9.248 20.7331 9.12 20.7731 8.952C20.8371 8.792 20.8891 8.636 20.9291 8.484C20.9691 8.332 21.0291 8.18 21.1091 8.028C21.1651 7.82 21.2331 7.624 21.3131 7.44C21.4011 7.248 21.4851 7.088 21.5651 6.96C21.5811 6.936 21.6091 6.904 21.6491 6.864C21.6971 6.824 21.7371 6.804 21.7691 6.804C21.8331 6.74 21.8891 6.716 21.9371 6.732C21.9931 6.74 22.0611 6.776 22.1411 6.84C22.2371 6.944 22.2731 7.064 22.2491 7.2C22.2331 7.336 22.1371 7.536 21.9611 7.8C21.8651 8.048 21.7771 8.264 21.6971 8.448C21.6171 8.624 21.5611 8.792 21.5291 8.952C21.6171 8.824 21.7131 8.708 21.8171 8.604C21.9291 8.492 22.0211 8.4 22.0931 8.328C22.2691 8.152 22.4131 8.024 22.5251 7.944C22.6451 7.864 22.7851 7.772 22.9451 7.668C23.0411 7.604 23.1331 7.548 23.2211 7.5C23.3091 7.444 23.4051 7.404 23.5091 7.38C23.6211 7.356 23.7411 7.356 23.8691 7.38C23.9491 7.372 24.0131 7.396 24.0611 7.452C24.1171 7.508 24.1611 7.584 24.1931 7.68C24.2251 7.776 24.2451 7.888 24.2531 8.016C24.0691 7.976 23.9051 7.984 23.7611 8.04C23.6171 8.088 23.4931 8.148 23.3891 8.22C23.2931 8.292 23.2171 8.348 23.1611 8.388C23.0411 8.468 22.8891 8.576 22.7051 8.712C22.5211 8.84 22.3371 8.996 22.1531 9.18C22.0091 9.34 21.8851 9.476 21.7811 9.588C21.6851 9.7 21.6051 9.8 21.5411 9.888C21.4851 9.976 21.4411 10.068 21.4091 10.164C21.3291 10.348 21.2451 10.548 21.1571 10.764C21.0691 10.98 20.9931 11.112 20.9291 11.16Z" />
    <path d="M17.8564 11.412C17.7444 11.38 17.6524 11.344 17.5804 11.304C17.5084 11.256 17.4124 11.18 17.2924 11.076C17.1964 10.948 17.1204 10.828 17.0644 10.716C17.0164 10.604 16.9844 10.476 16.9684 10.332C16.9524 10.18 16.9444 9.98799 16.9444 9.75599C16.9444 9.65999 16.9604 9.51599 16.9924 9.32399C17.0324 9.13199 17.0764 8.93199 17.1244 8.72399C17.1804 8.50799 17.2284 8.31599 17.2684 8.14799C17.3164 7.97999 17.3444 7.87199 17.3524 7.82399C17.3764 7.71999 17.3364 7.65999 17.2324 7.64399C17.1284 7.62799 17.0124 7.62399 16.8844 7.63199C16.7644 7.63199 16.6844 7.61999 16.6444 7.59599C16.6124 7.58799 16.5964 7.57599 16.5964 7.55999C16.5964 7.53599 16.5964 7.52399 16.5964 7.52399C16.5964 7.49199 16.5924 7.47199 16.5844 7.46399C16.5844 7.44799 16.5724 7.41999 16.5484 7.37999C16.5324 7.34799 16.5404 7.30399 16.5724 7.24799C16.6124 7.18399 16.6764 7.14399 16.7644 7.12799C16.8364 7.11199 16.9324 7.09999 17.0524 7.09199C17.1804 7.07599 17.3084 7.04799 17.4364 7.00799C17.5644 6.95999 17.6684 6.88799 17.7484 6.79199C17.8204 6.61599 17.9044 6.41999 18.0004 6.20399C18.0964 5.98799 18.1884 5.79599 18.2764 5.62799C18.3724 5.45199 18.4364 5.34399 18.4684 5.30399C18.6044 5.23199 18.7044 5.20399 18.7684 5.21999C18.8324 5.22799 18.9044 5.29599 18.9844 5.42399C19.0244 5.47999 19.0524 5.52399 19.0684 5.55599C19.0924 5.58799 19.0964 5.63599 19.0804 5.69999C19.0644 5.76399 19.0204 5.86399 18.9484 5.99999C18.8844 6.13599 18.7844 6.33199 18.6484 6.58799C18.6084 6.66799 18.5724 6.73999 18.5404 6.80399C18.5084 6.85999 18.4924 6.88799 18.4924 6.88799C18.5244 6.89599 18.5724 6.89999 18.6364 6.89999C18.7004 6.89999 18.7804 6.89599 18.8764 6.88799C18.9644 6.87199 19.0764 6.85999 19.2124 6.85199C19.3484 6.83599 19.4564 6.83599 19.5364 6.85199C19.7204 6.85199 19.8564 6.88799 19.9444 6.95999C20.0324 7.02399 20.0804 7.13599 20.0884 7.29599C20.1044 7.38399 20.0844 7.43599 20.0284 7.45199C19.9804 7.46799 19.8484 7.47599 19.6324 7.47599C19.5604 7.47599 19.4484 7.47999 19.2964 7.48799C19.1444 7.49599 18.9844 7.50399 18.8164 7.51199C18.6564 7.51999 18.5164 7.53199 18.3964 7.54799C18.2844 7.55599 18.2284 7.56799 18.2284 7.58399C18.2044 7.59999 18.1644 7.67599 18.1084 7.81199C18.0604 7.94799 18.0084 8.10399 17.9524 8.27999C17.9044 8.44799 17.8604 8.59999 17.8204 8.73599C17.7644 9.00799 17.7204 9.27999 17.6884 9.55199C17.6644 9.82399 17.6604 10.06 17.6764 10.26C17.6924 10.46 17.7364 10.6 17.8084 10.68C17.8804 10.752 18.0204 10.768 18.2284 10.728C18.4364 10.68 18.6044 10.604 18.7324 10.5C18.8764 10.38 18.9924 10.32 19.0804 10.32C19.1764 10.32 19.2284 10.364 19.2364 10.452C19.2524 10.532 19.2084 10.648 19.1044 10.8C19.0084 10.944 18.8884 11.072 18.7444 11.184C18.6004 11.288 18.4484 11.364 18.2884 11.412C18.1364 11.452 17.9924 11.452 17.8564 11.412Z" />
    <path d="M14.2502 11.052C14.1862 10.988 14.1382 10.908 14.1062 10.812C14.0822 10.716 14.0742 10.62 14.0822 10.524C14.0902 10.428 14.1102 10.348 14.1422 10.284C14.1422 10.22 14.1502 10.172 14.1662 10.14C14.1902 10.1 14.1982 10.064 14.1902 10.032C14.1822 10 14.1902 9.944 14.2142 9.864C14.2382 9.784 14.2622 9.708 14.2862 9.636C14.3422 9.508 14.4022 9.356 14.4662 9.18C14.5302 8.996 14.5902 8.816 14.6462 8.64C14.7022 8.464 14.7502 8.312 14.7902 8.184C14.8302 8.056 14.8542 7.976 14.8622 7.944C14.8622 7.848 14.9262 7.796 15.0542 7.788C15.1502 7.756 15.2222 7.756 15.2702 7.788C15.3182 7.812 15.3822 7.888 15.4622 8.016C15.5262 8.08 15.5502 8.176 15.5342 8.304C15.5182 8.432 15.4662 8.592 15.3782 8.784C15.3462 8.848 15.3062 8.94 15.2582 9.06C15.2182 9.18 15.1902 9.288 15.1742 9.384C15.1422 9.448 15.1022 9.54 15.0542 9.66C15.0142 9.772 14.9782 9.88 14.9462 9.984C14.9302 10.024 14.9142 10.084 14.8982 10.164C14.8822 10.236 14.8622 10.316 14.8382 10.404C14.8142 10.484 14.7822 10.556 14.7422 10.62C14.6702 10.948 14.6022 11.14 14.5382 11.196C14.4822 11.252 14.3862 11.204 14.2502 11.052ZM15.4142 6.18C15.3742 6.14 15.3382 6.084 15.3062 6.012C15.2742 5.932 15.2542 5.86 15.2462 5.796C15.2382 5.724 15.2462 5.688 15.2702 5.688C15.3342 5.68 15.4102 5.612 15.4982 5.484C15.5862 5.356 15.6222 5.244 15.6062 5.148C15.6062 5.116 15.6182 5.088 15.6422 5.064C15.6662 5.032 15.6942 5.012 15.7262 5.004C15.8222 4.94 15.9142 4.932 16.0022 4.98C16.0982 5.02 16.1862 5.104 16.2662 5.232C16.3382 5.384 16.3582 5.512 16.3262 5.616C16.2942 5.712 16.2062 5.848 16.0622 6.024C15.9422 6.184 15.8302 6.272 15.7262 6.288C15.6302 6.304 15.5262 6.268 15.4142 6.18Z" />
    <path d="M12.8153 10.932C12.7753 10.916 12.7153 10.876 12.6353 10.812C12.5553 10.748 12.4873 10.64 12.4313 10.488C12.3753 10.328 12.3473 10.108 12.3473 9.828C12.3553 9.588 12.3593 9.4 12.3593 9.264C12.3673 9.128 12.3393 9.06 12.2753 9.06C12.2113 9.06 12.0873 9.124 11.9033 9.252C11.7273 9.372 11.5233 9.536 11.2913 9.744C11.0593 9.952 10.8233 10.184 10.5833 10.44C10.5033 10.528 10.4233 10.612 10.3433 10.692C10.2713 10.764 10.1993 10.812 10.1273 10.836C10.0553 10.852 9.97131 10.824 9.87531 10.752L9.74331 10.644C9.70331 10.604 9.67931 10.564 9.67131 10.524C9.66331 10.476 9.66731 10.424 9.68331 10.368L9.95931 9.576C10.0873 9.288 10.1753 9.08 10.2233 8.952C10.2713 8.816 10.2953 8.732 10.2953 8.7C10.2953 8.66 10.2833 8.644 10.2593 8.652C10.1953 8.66 10.0993 8.7 9.97131 8.772C9.84331 8.836 9.75931 8.9 9.71931 8.964C9.68731 8.964 9.63931 9 9.57531 9.072C9.51131 9.144 9.43131 9.212 9.33531 9.276C9.27931 9.372 9.16731 9.496 8.99931 9.648C8.83931 9.8 8.67931 9.956 8.51931 10.116C8.41531 10.204 8.31131 10.312 8.20731 10.44C8.11131 10.568 8.02731 10.68 7.95531 10.776C7.89131 10.872 7.84731 10.92 7.82331 10.92C7.71931 10.92 7.62331 10.892 7.53531 10.836C7.45531 10.78 7.39531 10.688 7.35531 10.56C7.29131 10.424 7.29131 10.236 7.35531 9.996C7.41931 9.748 7.49131 9.428 7.57131 9.036C7.60331 8.916 7.62331 8.828 7.63131 8.772C7.63931 8.716 7.65131 8.66 7.66731 8.604C7.69131 8.54 7.72731 8.444 7.77531 8.316C7.83131 8.188 7.91531 7.996 8.02731 7.74C8.08331 7.588 8.11531 7.476 8.12331 7.404C8.13931 7.324 8.14731 7.268 8.14731 7.236C8.14731 7.156 8.16731 7.088 8.20731 7.032C8.25531 6.976 8.31131 6.936 8.37531 6.912C8.43931 6.888 8.49931 6.884 8.55531 6.9C8.64331 6.916 8.71931 6.96 8.78331 7.032C8.85531 7.104 8.89531 7.204 8.90331 7.332C8.91131 7.428 8.90331 7.516 8.87931 7.596C8.85531 7.668 8.83131 7.736 8.80731 7.8L8.67531 8.124C8.63531 8.212 8.58331 8.34 8.51931 8.508C8.45531 8.676 8.39931 8.832 8.35131 8.976C8.30331 9.112 8.27931 9.192 8.27931 9.216C8.28731 9.24 8.31531 9.236 8.36331 9.204C8.41131 9.164 8.47131 9.112 8.54331 9.048C8.62331 8.976 8.70331 8.908 8.78331 8.844C8.95131 8.684 9.13931 8.532 9.34731 8.388C9.56331 8.236 9.76731 8.108 9.95931 8.004C10.1513 7.9 10.2993 7.832 10.4033 7.8C10.5393 7.8 10.6313 7.824 10.6793 7.872C10.7353 7.92 10.8273 8.008 10.9553 8.136C11.0113 8.192 11.0433 8.264 11.0513 8.352C11.0593 8.44 11.0553 8.524 11.0393 8.604C11.0313 8.636 11.0073 8.716 10.9673 8.844C10.9273 8.964 10.8873 9.08 10.8473 9.192C10.8153 9.304 10.7993 9.36 10.7993 9.36C10.7993 9.36 10.8433 9.32 10.9313 9.24C11.0273 9.16 11.1313 9.076 11.2433 8.988C11.3553 8.892 11.4393 8.82 11.4953 8.772C11.8073 8.532 12.0793 8.38 12.3113 8.316C12.5433 8.252 12.7313 8.336 12.8753 8.568C12.9713 8.656 13.0193 8.752 13.0193 8.856C13.0273 8.96 13.0313 9.14 13.0313 9.396C13.0393 9.5 13.0473 9.624 13.0553 9.768C13.0633 9.912 13.0713 10.044 13.0793 10.164C13.0953 10.276 13.1113 10.344 13.1273 10.368C13.1513 10.4 13.1953 10.428 13.2593 10.452C13.3313 10.468 13.4233 10.484 13.5353 10.5C13.6553 10.516 13.7273 10.568 13.7513 10.656C13.7753 10.744 13.7233 10.828 13.5953 10.908C13.4753 10.98 13.3433 11.012 13.1993 11.004C13.0553 10.996 12.9273 10.972 12.8153 10.932Z" />
    <path d="M1.73143 12.576C1.57943 12.6 1.43943 12.612 1.31143 12.612C1.18343 12.62 0.995429 12.592 0.747429 12.528C0.619429 12.488 0.527429 12.44 0.471429 12.384C0.423429 12.328 0.339429 12.224 0.219429 12.072C0.131429 11.944 0.0674286 11.824 0.0274286 11.712C-0.00457142 11.608 -0.00857143 11.524 0.0154286 11.46C0.0394285 11.404 0.0914286 11.388 0.171429 11.412C0.195429 11.42 0.231429 11.444 0.279429 11.484C0.335429 11.532 0.387429 11.588 0.435429 11.652C0.547429 11.772 0.683429 11.852 0.843429 11.892C1.00343 11.932 1.21543 11.936 1.47943 11.904C1.59143 11.88 1.72743 11.844 1.88743 11.796C2.04743 11.756 2.20343 11.704 2.35543 11.64C2.50743 11.576 2.62743 11.512 2.71543 11.448C3.13943 11.16 3.47943 10.932 3.73543 10.764C3.99143 10.596 4.11943 10.512 4.11943 10.512C4.13543 10.48 4.16343 10.456 4.20343 10.44C4.25143 10.416 4.30743 10.392 4.37143 10.368C4.41943 10.32 4.49543 10.244 4.59943 10.14C4.71143 10.036 4.81543 9.932 4.91143 9.828C5.01543 9.724 5.07943 9.664 5.10343 9.648C5.11943 9.576 5.13543 9.52 5.15143 9.48C5.16743 9.432 5.17543 9.384 5.17543 9.336C5.23943 9.272 5.32343 9.14 5.42743 8.94C5.53943 8.732 5.65143 8.504 5.76343 8.256C5.87543 8 5.95543 7.768 6.00343 7.56C6.11543 7 6.14343 6.528 6.08743 6.144C6.03143 5.76 5.91543 5.432 5.73943 5.16C5.57143 4.88 5.35943 4.632 5.10343 4.416C5.01543 4.344 4.89143 4.268 4.73143 4.188C4.57943 4.1 4.41943 4.024 4.25143 3.96C4.08343 3.896 3.93543 3.844 3.80743 3.804C3.68743 3.764 3.61543 3.748 3.59143 3.756C3.55943 3.764 3.49143 3.892 3.38743 4.14C3.29143 4.38 3.17543 4.688 3.03943 5.064C2.90343 5.44 2.75543 5.84 2.59543 6.264C2.44343 6.688 2.29943 7.088 2.16343 7.464C2.11543 7.616 2.06343 7.776 2.00743 7.944C1.95143 8.112 1.90343 8.26 1.86343 8.388C1.82343 8.508 1.80343 8.588 1.80343 8.628C1.71543 8.764 1.64343 8.944 1.58743 9.168C1.53943 9.392 1.48343 9.764 1.41943 10.284C1.34743 10.556 1.29543 10.764 1.26343 10.908C1.23143 11.044 1.19943 11.108 1.16743 11.1C1.16743 11.1 1.16343 11.104 1.15543 11.112C1.15543 11.112 1.14343 11.124 1.11943 11.148C1.11943 11.196 1.08743 11.22 1.02343 11.22C0.959429 11.22 0.883429 11.204 0.795428 11.172C0.715429 11.132 0.651429 11.088 0.603429 11.04C0.579429 10.952 0.563429 10.868 0.555429 10.788C0.555429 10.708 0.587429 10.552 0.651429 10.32C0.691429 10.168 0.739428 9.984 0.795428 9.768C0.859428 9.544 0.927429 9.316 0.999429 9.084C1.07143 8.844 1.13943 8.624 1.20343 8.424C1.26743 8.224 1.31543 8.072 1.34743 7.968C1.40343 7.832 1.48343 7.576 1.58743 7.2C1.65143 6.992 1.71543 6.784 1.77943 6.576C1.85143 6.368 1.91943 6.184 1.98343 6.024C2.04743 5.856 2.09143 5.748 2.11543 5.7C2.15543 5.596 2.21543 5.42 2.29543 5.172C2.37543 4.924 2.47943 4.648 2.60743 4.344L2.69143 3.948L2.55943 3.888C2.46343 3.92 2.38743 3.932 2.33143 3.924C2.28343 3.908 2.25143 3.896 2.23543 3.888C2.18743 3.904 2.11943 3.892 2.03143 3.852C1.94343 3.812 1.86343 3.76 1.79143 3.696C1.72743 3.632 1.68743 3.576 1.67143 3.528C1.65543 3.496 1.64343 3.456 1.63543 3.408C1.63543 3.352 1.63543 3.324 1.63543 3.324C1.64343 3.276 1.70343 3.232 1.81543 3.192C1.92743 3.144 2.07143 3.104 2.24743 3.072C2.43143 3.04 2.62743 3.02 2.83543 3.012C3.05143 2.996 3.25943 2.996 3.45943 3.012C3.66743 3.028 3.86343 3.072 4.04743 3.144C4.23143 3.216 4.43143 3.292 4.64743 3.372C4.90343 3.468 5.17143 3.636 5.45143 3.876C5.73943 4.108 5.99943 4.384 6.23143 4.704C6.47143 5.024 6.63143 5.36 6.71143 5.712C6.73543 5.808 6.75943 5.944 6.78343 6.12C6.80743 6.296 6.81943 6.468 6.81943 6.636C6.82743 6.796 6.81143 6.9 6.77143 6.948C6.75543 6.98 6.74343 7.02 6.73543 7.068C6.73543 7.108 6.75143 7.136 6.78343 7.152C6.77543 7.176 6.74743 7.268 6.69943 7.428C6.65143 7.58 6.60743 7.712 6.56743 7.824C6.55143 8.032 6.50343 8.248 6.42343 8.472C6.34343 8.696 6.25543 8.908 6.15943 9.108C6.06343 9.3 5.97543 9.464 5.89543 9.6C5.86343 9.6 5.83143 9.608 5.79943 9.624C5.77543 9.632 5.77943 9.64 5.81143 9.648C5.81143 9.688 5.76743 9.764 5.67943 9.876C5.64743 9.9 5.59543 9.96 5.52343 10.056C5.45943 10.144 5.40743 10.204 5.36743 10.236C5.35943 10.292 5.33543 10.34 5.29543 10.38C5.25543 10.412 5.21943 10.428 5.18743 10.428C5.18743 10.428 5.17943 10.428 5.16343 10.428C5.15543 10.428 5.15143 10.444 5.15143 10.476C5.08743 10.572 4.98743 10.688 4.85143 10.824C4.71543 10.952 4.55943 11.088 4.38343 11.232C4.21543 11.368 4.03943 11.496 3.85543 11.616C3.67943 11.736 3.51143 11.828 3.35143 11.892C3.27143 11.948 3.18743 11.992 3.09943 12.024C3.01143 12.064 2.92743 12.104 2.84743 12.144C2.80743 12.176 2.71943 12.22 2.58343 12.276C2.44743 12.34 2.29943 12.4 2.13943 12.456C1.98743 12.512 1.85143 12.552 1.73143 12.576Z" />
</svg>
